<?xml version="1.0" standalone="no"?>
<!DOCTYPE svg PUBLIC "-//W3C//DTD SVG 20010904//EN"
 "http://www.w3.org/TR/2001/REC-SVG-20010904/DTD/svg10.dtd">
<svg version="1.0" xmlns="http://www.w3.org/2000/svg"
 width="520.000000pt" height="520.000000pt" viewBox="0 0 520.000000 520.000000"
 preserveAspectRatio="xMidYMid meet">
<metadata>
Created by potrace 1.14, written by Peter Selinger 2001-2017
</metadata>
<g transform="translate(0.000000,520.000000) scale(0.100000,-0.100000)"
fill="#000000" stroke="none">
<path d="M1129 4996 c-2 -2 -26 -6 -54 -9 -101 -12 -200 -43 -310 -99 -272
-136 -468 -389 -542 -698 -17 -70 -18 -169 -18 -1585 0 -830 4 -1528 8 -1550
45 -223 132 -391 282 -540 160 -160 267 -223 495 -288 l75 -21 1510 -3 c1468
-2 1512 -2 1597 17 208 47 358 125 502 260 60 56 176 198 176 215 0 3 11 22
23 43 44 69 89 199 116 337 7 32 10 583 10 1525 0 1617 3 1538 -60 1716 -122
345 -419 597 -789 669 -63 12 -304 14 -1546 15 -809 0 -1473 -2 -1475 -4z
m1781 -1460 c283 -50 544 -153 765 -302 55 -37 102 -70 105 -73 3 -3 26 -23
52 -44 26 -21 68 -58 93 -82 l46 -43 -94 -94 c-51 -51 -326 -322 -611 -603
-286 -280 -552 -543 -592 -582 l-73 -73 -88 86 c-48 47 -315 310 -593 584
-278 273 -547 538 -598 588 l-93 92 39 37 c165 161 405 314 627 401 93 37 278
89 344 98 25 3 48 8 52 9 3 2 39 7 80 11 40 3 76 8 78 10 12 11 378 -6 461
-20z"/>
</g>
</svg>
