<?xml version="1.0" standalone="no"?>
<!DOCTYPE svg PUBLIC "-//W3C//DTD SVG 20010904//EN"
 "http://www.w3.org/TR/2001/REC-SVG-20010904/DTD/svg10.dtd">
<svg version="1.0" xmlns="http://www.w3.org/2000/svg"
 width="520.000000pt" height="520.000000pt" viewBox="0 0 520.000000 520.000000"
 preserveAspectRatio="xMidYMid meet">
<metadata>
Created by potrace 1.14, written by Peter Selinger 2001-2017
</metadata>
<g transform="translate(0.000000,520.000000) scale(0.100000,-0.100000)"
fill="#000000" stroke="none">
<path d="M1649 4996 c-2 -2 -31 -6 -64 -10 -200 -19 -489 -119 -626 -217 -15
-10 -30 -19 -33 -19 -8 0 -104 -69 -146 -105 -275 -237 -447 -508 -529 -830
-22 -87 -28 -116 -41 -215 -9 -70 -7 -1988 2 -2030 3 -14 9 -45 12 -70 4 -25
9 -53 12 -62 2 -9 6 -25 9 -35 2 -11 10 -42 18 -69 146 -483 503 -865 972
-1037 104 -38 159 -52 330 -84 22 -5 492 -8 1045 -8 l1005 0 130 28 c71 16
136 34 144 40 8 7 15 10 15 8 2 -9 115 34 206 77 292 140 557 398 712 692 79
150 144 360 167 540 11 86 9 2021 -2 2060 -4 14 -9 39 -12 55 -5 26 -16 79
-20 95 -1 3 -5 19 -9 35 -32 121 -140 368 -182 416 -8 8 -14 19 -14 22 0 20
-126 175 -214 263 -140 139 -274 234 -441 313 -116 55 -287 110 -395 126 -25
4 -54 10 -65 13 -22 7 -1979 15 -1986 8z m1261 -1460 c283 -50 544 -153 765
-302 55 -37 102 -70 105 -73 3 -3 26 -23 52 -44 26 -21 68 -58 93 -82 l46 -43
-686 -688 -685 -688 -685 687 -685 688 38 37 c165 160 405 313 627 400 93 37
278 89 344 98 25 3 48 8 52 9 3 2 39 7 80 11 40 3 76 8 78 10 12 11 378 -6
461 -20z"/>
</g>
</svg>
